<svg width="129" height="131" viewBox="0 0 129 131" fill="none" xmlns="http://www.w3.org/2000/svg">
<path d="M128.895 55.9258L97.1066 65.1707L128.895 74.4118L95.7909 74.3183L123.69 92.1537L91.9566 82.7295L113.705 107.706L85.9073 89.7149L99.7459 119.811L78.1374 94.7133L82.941 127.49L69.2737 97.3158L64.6569 130.123L60.0401 97.3158L46.3727 127.49L51.1764 94.7133L29.5717 119.811L43.4065 89.7149L15.6085 107.706L37.3572 82.7295L5.6237 92.1537L33.5229 74.3183L0.419128 74.4118L32.2071 65.1707L0.419128 55.9258L33.5229 56.0193L5.6237 38.1877L37.3572 47.6119L15.6085 22.6353L43.4065 40.6266L29.5717 10.5308L51.1764 35.6281L46.3727 2.84805L60.0401 33.0257L64.6569 0.218323L69.2737 33.0257L82.941 2.84805L78.1374 35.6281L99.7459 10.5308L85.9073 40.6266L113.705 22.6353L91.9566 47.6119L123.69 38.1877L95.7909 56.0193L128.895 55.9258Z" fill="#01A24C"/>
</svg>
